<svg width="218" height="14" viewBox="0 0 218 14" fill="none" xmlns="http://www.w3.org/2000/svg">
<path d="M7.22505 13.216C6.30106 13.216 5.44906 13.066 4.66905 12.766C3.88905 12.454 3.21105 12.028 2.63505 11.488C2.05905 10.936 1.60905 10.282 1.28505 9.526C0.961055 8.758 0.799055 7.918 0.799055 7.006C0.799055 6.094 0.961055 5.26 1.28505 4.504C1.60905 3.736 2.05905 3.082 2.63505 2.542C3.21105 1.99 3.88905 1.564 4.66905 1.264C5.44906 0.952 6.30106 0.795999 7.22505 0.795999C8.13706 0.795999 8.98306 0.952 9.76306 1.264C10.5551 1.564 11.2331 1.99 11.7971 2.542C12.3731 3.082 12.8231 3.736 13.1471 4.504C13.4711 5.26 13.6331 6.094 13.6331 7.006C13.6331 7.834 13.5011 8.602 13.2371 9.31C12.9731 10.006 12.6011 10.624 12.1211 11.164L12.8771 12.082L10.7171 13.81L9.83505 12.73C9.43906 12.886 9.01906 13.006 8.57506 13.09C8.14306 13.174 7.69306 13.216 7.22505 13.216ZM7.22505 10.48C7.48906 10.48 7.72306 10.456 7.92706 10.408L6.82906 9.076L8.97106 7.348L10.1051 8.716C10.2251 8.464 10.3151 8.194 10.3751 7.906C10.4471 7.618 10.4831 7.318 10.4831 7.006C10.4831 6.514 10.4051 6.058 10.2491 5.638C10.0931 5.218 9.87106 4.852 9.58305 4.54C9.30705 4.228 8.96506 3.982 8.55705 3.802C8.16106 3.622 7.71706 3.532 7.22505 3.532C6.72106 3.532 6.26506 3.622 5.85705 3.802C5.46105 3.982 5.11905 4.228 4.83105 4.54C4.55505 4.852 4.33905 5.218 4.18305 5.638C4.02705 6.058 3.94905 6.514 3.94905 7.006C3.94905 7.498 4.02705 7.954 4.18305 8.374C4.33905 8.794 4.55505 9.16 4.83105 9.472C5.11905 9.784 5.46105 10.03 5.85705 10.21C6.26506 10.39 6.72106 10.48 7.22505 10.48ZM20.8803 13.216C19.9083 13.216 19.0623 13.09 18.3423 12.838C17.6343 12.586 17.0463 12.238 16.5783 11.794C16.1103 11.338 15.7623 10.804 15.5343 10.192C15.3063 9.568 15.1923 8.884 15.1923 8.14V0.993999H18.3423V8.032C18.3423 8.752 18.5523 9.34 18.9723 9.796C19.3923 10.252 20.0283 10.48 20.8803 10.48C21.7083 10.48 22.3323 10.252 22.7523 9.796C23.1843 9.34 23.4003 8.752 23.4003 8.032V0.993999H26.5323V8.122C26.5323 8.866 26.4183 9.55 26.1903 10.174C25.9623 10.798 25.6143 11.338 25.1463 11.794C24.6783 12.238 24.0903 12.586 23.3823 12.838C22.6743 13.09 21.8403 13.216 20.8803 13.216ZM28.6923 13V0.993999H31.7883V13H28.6923ZM33.9482 13V0.993999H38.9882C39.9362 0.993999 40.8062 1.132 41.5982 1.408C42.3902 1.684 43.0742 2.08 43.6502 2.596C44.2262 3.112 44.6762 3.742 45.0002 4.486C45.3242 5.218 45.4862 6.052 45.4862 6.988C45.4862 7.924 45.3242 8.764 45.0002 9.508C44.6762 10.24 44.2262 10.87 43.6502 11.398C43.0742 11.914 42.3902 12.31 41.5982 12.586C40.8062 12.862 39.9422 13 39.0062 13H33.9482ZM38.9882 10.3C39.5162 10.3 39.9842 10.21 40.3922 10.03C40.8122 9.85 41.1602 9.61 41.4362 9.31C41.7242 9.01 41.9402 8.662 42.0842 8.266C42.2402 7.858 42.3182 7.432 42.3182 6.988C42.3182 6.52 42.2462 6.088 42.1022 5.692C41.9702 5.296 41.7662 4.948 41.4902 4.648C41.2142 4.348 40.8662 4.114 40.4462 3.946C40.0382 3.778 39.5582 3.694 39.0062 3.694H37.0442V10.3H38.9882ZM47.0263 13V0.993999H53.0383C53.7103 0.993999 54.3043 1.102 54.8203 1.318C55.3483 1.522 55.7863 1.81 56.1343 2.182C56.4943 2.542 56.7643 2.968 56.9443 3.46C57.1243 3.94 57.2143 4.45 57.2143 4.99C57.2143 5.53 57.1243 6.04 56.9443 6.52C56.7643 7 56.4943 7.426 56.1343 7.798C55.7863 8.158 55.3483 8.446 54.8203 8.662C54.3043 8.866 53.7103 8.968 53.0383 8.968H50.1223V13H47.0263ZM52.6243 6.268C53.0443 6.268 53.3863 6.16 53.6503 5.944C53.9263 5.716 54.0643 5.398 54.0643 4.99C54.0643 4.57 53.9263 4.252 53.6503 4.036C53.3863 3.808 53.0443 3.694 52.6243 3.694H50.1223V6.268H52.6243ZM65.2887 13L63.2727 8.968H61.6887V13H58.5927V0.993999H64.6047C65.2647 0.993999 65.8527 1.102 66.3687 1.318C66.8967 1.522 67.3347 1.804 67.6827 2.164C68.0427 2.524 68.3127 2.95 68.4927 3.442C68.6847 3.922 68.7807 4.438 68.7807 4.99C68.7807 5.518 68.7087 5.986 68.5647 6.394C68.4207 6.79 68.2347 7.138 68.0067 7.438C67.7787 7.726 67.5207 7.966 67.2327 8.158C66.9447 8.35 66.6627 8.494 66.3867 8.59L68.8347 13H65.2887ZM64.1367 6.268C64.5447 6.268 64.8927 6.16 65.1807 5.944C65.4807 5.716 65.6307 5.392 65.6307 4.972C65.6307 4.564 65.4807 4.252 65.1807 4.036C64.8927 3.808 64.5447 3.694 64.1367 3.694H61.6887V6.268H64.1367ZM76.3071 13.216C75.3831 13.216 74.5311 13.066 73.7511 12.766C72.9711 12.454 72.2931 12.028 71.7171 11.488C71.1411 10.936 70.6911 10.282 70.3671 9.526C70.0431 8.758 69.8811 7.918 69.8811 7.006C69.8811 6.094 70.0431 5.26 70.3671 4.504C70.6911 3.736 71.1411 3.082 71.7171 2.542C72.2931 1.99 72.9711 1.564 73.7511 1.264C74.5311 0.952 75.3831 0.795999 76.3071 0.795999C77.2191 0.795999 78.0651 0.952 78.8451 1.264C79.6371 1.564 80.3151 1.99 80.8791 2.542C81.4551 3.082 81.9051 3.736 82.2291 4.504C82.5531 5.26 82.7151 6.094 82.7151 7.006C82.7151 7.918 82.5531 8.758 82.2291 9.526C81.9051 10.282 81.4551 10.936 80.8791 11.488C80.3151 12.028 79.6371 12.454 78.8451 12.766C78.0651 13.066 77.2191 13.216 76.3071 13.216ZM76.3071 10.48C76.7991 10.48 77.2431 10.39 77.6391 10.21C78.0471 10.03 78.3891 9.784 78.6651 9.472C78.9531 9.16 79.1751 8.794 79.3311 8.374C79.4871 7.954 79.5651 7.498 79.5651 7.006C79.5651 6.514 79.4871 6.058 79.3311 5.638C79.1751 5.218 78.9531 4.852 78.6651 4.54C78.3891 4.228 78.0471 3.982 77.6391 3.802C77.2431 3.622 76.7991 3.532 76.3071 3.532C75.8031 3.532 75.3471 3.622 74.9391 3.802C74.5431 3.982 74.2011 4.228 73.9131 4.54C73.6371 4.852 73.4211 5.218 73.2651 5.638C73.1091 6.058 73.0311 6.514 73.0311 7.006C73.0311 7.498 73.1091 7.954 73.2651 8.374C73.4211 8.794 73.6371 9.16 73.9131 9.472C74.2011 9.784 74.5431 10.03 74.9391 10.21C75.3471 10.39 75.8031 10.48 76.3071 10.48ZM90.0883 13.216C89.1643 13.216 88.3123 13.066 87.5323 12.766C86.7523 12.454 86.0743 12.028 85.4983 11.488C84.9223 10.936 84.4723 10.282 84.1483 9.526C83.8243 8.758 83.6623 7.918 83.6623 7.006C83.6623 6.094 83.8243 5.26 84.1483 4.504C84.4723 3.736 84.9223 3.082 85.4983 2.542C86.0743 1.99 86.7523 1.564 87.5323 1.264C88.3123 0.952 89.1643 0.795999 90.0883 0.795999C91.0003 0.795999 91.8463 0.952 92.6263 1.264C93.4183 1.564 94.0963 1.99 94.6603 2.542C95.2363 3.082 95.6863 3.736 96.0103 4.504C96.3343 5.26 96.4963 6.094 96.4963 7.006C96.4963 7.834 96.3643 8.602 96.1003 9.31C95.8363 10.006 95.4643 10.624 94.9843 11.164L95.7403 12.082L93.5803 13.81L92.6983 12.73C92.3023 12.886 91.8823 13.006 91.4383 13.09C91.0063 13.174 90.5563 13.216 90.0883 13.216ZM90.0883 10.48C90.3523 10.48 90.5863 10.456 90.7903 10.408L89.6923 9.076L91.8343 7.348L92.9683 8.716C93.0883 8.464 93.1783 8.194 93.2383 7.906C93.3103 7.618 93.3463 7.318 93.3463 7.006C93.3463 6.514 93.2683 6.058 93.1123 5.638C92.9563 5.218 92.7343 4.852 92.4463 4.54C92.1703 4.228 91.8283 3.982 91.4203 3.802C91.0243 3.622 90.5803 3.532 90.0883 3.532C89.5843 3.532 89.1283 3.622 88.7203 3.802C88.3243 3.982 87.9823 4.228 87.6943 4.54C87.4183 4.852 87.2023 5.218 87.0463 5.638C86.8903 6.058 86.8123 6.514 86.8123 7.006C86.8123 7.498 86.8903 7.954 87.0463 8.374C87.2023 8.794 87.4183 9.16 87.6943 9.472C87.9823 9.784 88.3243 10.03 88.7203 10.21C89.1283 10.39 89.5843 10.48 90.0883 10.48ZM103.744 13.216C102.772 13.216 101.926 13.09 101.206 12.838C100.498 12.586 99.9096 12.238 99.4416 11.794C98.9736 11.338 98.6256 10.804 98.3976 10.192C98.1696 9.568 98.0556 8.884 98.0556 8.14V0.993999H101.206V8.032C101.206 8.752 101.416 9.34 101.836 9.796C102.256 10.252 102.892 10.48 103.744 10.48C104.572 10.48 105.196 10.252 105.616 9.796C106.048 9.34 106.264 8.752 106.264 8.032V0.993999H109.396V8.122C109.396 8.866 109.282 9.55 109.054 10.174C108.826 10.798 108.478 11.338 108.01 11.794C107.542 12.238 106.954 12.586 106.246 12.838C105.538 13.09 104.704 13.216 103.744 13.216ZM117.37 13.216C116.446 13.216 115.594 13.066 114.814 12.766C114.034 12.454 113.356 12.028 112.78 11.488C112.204 10.936 111.754 10.282 111.43 9.526C111.106 8.758 110.944 7.918 110.944 7.006C110.944 6.094 111.106 5.26 111.43 4.504C111.754 3.736 112.204 3.082 112.78 2.542C113.356 1.99 114.034 1.564 114.814 1.264C115.594 0.952 116.446 0.795999 117.37 0.795999C118.282 0.795999 119.128 0.952 119.908 1.264C120.7 1.564 121.378 1.99 121.942 2.542C122.518 3.082 122.968 3.736 123.292 4.504C123.616 5.26 123.778 6.094 123.778 7.006C123.778 7.918 123.616 8.758 123.292 9.526C122.968 10.282 122.518 10.936 121.942 11.488C121.378 12.028 120.7 12.454 119.908 12.766C119.128 13.066 118.282 13.216 117.37 13.216ZM117.37 10.48C117.862 10.48 118.306 10.39 118.702 10.21C119.11 10.03 119.452 9.784 119.728 9.472C120.016 9.16 120.238 8.794 120.394 8.374C120.55 7.954 120.628 7.498 120.628 7.006C120.628 6.514 120.55 6.058 120.394 5.638C120.238 5.218 120.016 4.852 119.728 4.54C119.452 4.228 119.11 3.982 118.702 3.802C118.306 3.622 117.862 3.532 117.37 3.532C116.866 3.532 116.41 3.622 116.002 3.802C115.606 3.982 115.264 4.228 114.976 4.54C114.7 4.852 114.484 5.218 114.328 5.638C114.172 6.058 114.094 6.514 114.094 7.006C114.094 7.498 114.172 7.954 114.328 8.374C114.484 8.794 114.7 9.16 114.976 9.472C115.264 9.784 115.606 10.03 116.002 10.21C116.41 10.39 116.866 10.48 117.37 10.48ZM129.801 13.216C128.577 13.216 127.533 13.042 126.669 12.694C125.817 12.346 125.085 11.884 124.473 11.308L126.111 8.986C126.543 9.418 127.083 9.79 127.731 10.102C128.379 10.414 129.117 10.57 129.945 10.57C130.485 10.57 130.905 10.48 131.205 10.3C131.505 10.108 131.655 9.868 131.655 9.58C131.655 9.304 131.487 9.1 131.151 8.968C130.815 8.836 130.395 8.716 129.891 8.608C129.387 8.488 128.841 8.362 128.253 8.23C127.665 8.086 127.119 7.876 126.615 7.6C126.111 7.324 125.691 6.952 125.355 6.484C125.019 6.016 124.851 5.398 124.851 4.63C124.851 4.126 124.953 3.646 125.157 3.19C125.373 2.722 125.685 2.314 126.093 1.966C126.501 1.618 126.999 1.342 127.587 1.138C128.187 0.921999 128.871 0.813999 129.639 0.813999C131.595 0.813999 133.221 1.372 134.517 2.488L132.825 4.702C132.321 4.282 131.757 3.97 131.133 3.766C130.521 3.562 129.915 3.46 129.315 3.46C128.859 3.46 128.529 3.544 128.325 3.712C128.121 3.868 128.019 4.072 128.019 4.324C128.019 4.576 128.187 4.768 128.523 4.9C128.859 5.032 129.279 5.158 129.783 5.278C130.287 5.386 130.827 5.512 131.403 5.656C131.991 5.8 132.537 6.01 133.041 6.286C133.545 6.562 133.965 6.934 134.301 7.402C134.637 7.858 134.805 8.458 134.805 9.202C134.805 9.802 134.691 10.354 134.463 10.858C134.247 11.35 133.929 11.77 133.509 12.118C133.089 12.466 132.567 12.736 131.943 12.928C131.319 13.12 130.605 13.216 129.801 13.216ZM144.231 13L143.637 11.272H138.903L138.309 13H134.799L139.317 0.993999H143.205L147.741 13H144.231ZM141.261 4.054L139.731 8.572H142.791L141.261 4.054ZM156.8 13L151.724 6.052V13H148.628V0.993999H151.814L156.674 7.6V0.993999H159.788V13H156.8ZM166.416 13.216C165.192 13.216 164.148 13.042 163.284 12.694C162.432 12.346 161.7 11.884 161.088 11.308L162.726 8.986C163.158 9.418 163.698 9.79 164.346 10.102C164.994 10.414 165.732 10.57 166.56 10.57C167.1 10.57 167.52 10.48 167.82 10.3C168.12 10.108 168.27 9.868 168.27 9.58C168.27 9.304 168.102 9.1 167.766 8.968C167.43 8.836 167.01 8.716 166.506 8.608C166.002 8.488 165.456 8.362 164.868 8.23C164.28 8.086 163.734 7.876 163.23 7.6C162.726 7.324 162.306 6.952 161.97 6.484C161.634 6.016 161.466 5.398 161.466 4.63C161.466 4.126 161.568 3.646 161.772 3.19C161.988 2.722 162.3 2.314 162.708 1.966C163.116 1.618 163.614 1.342 164.202 1.138C164.802 0.921999 165.486 0.813999 166.254 0.813999C168.21 0.813999 169.836 1.372 171.132 2.488L169.44 4.702C168.936 4.282 168.372 3.97 167.748 3.766C167.136 3.562 166.53 3.46 165.93 3.46C165.474 3.46 165.144 3.544 164.94 3.712C164.736 3.868 164.634 4.072 164.634 4.324C164.634 4.576 164.802 4.768 165.138 4.9C165.474 5.032 165.894 5.158 166.398 5.278C166.902 5.386 167.442 5.512 168.018 5.656C168.606 5.8 169.152 6.01 169.656 6.286C170.16 6.562 170.58 6.934 170.916 7.402C171.252 7.858 171.42 8.458 171.42 9.202C171.42 9.802 171.306 10.354 171.078 10.858C170.862 11.35 170.544 11.77 170.124 12.118C169.704 12.466 169.182 12.736 168.558 12.928C167.934 13.12 167.22 13.216 166.416 13.216ZM174.2 13.216C173.972 13.216 173.756 13.168 173.552 13.072C173.348 12.988 173.168 12.868 173.012 12.712C172.856 12.556 172.73 12.376 172.634 12.172C172.55 11.968 172.508 11.752 172.508 11.524C172.508 11.296 172.55 11.08 172.634 10.876C172.73 10.672 172.856 10.492 173.012 10.336C173.168 10.18 173.348 10.06 173.552 9.976C173.756 9.88 173.972 9.832 174.2 9.832C174.428 9.832 174.644 9.88 174.848 9.976C175.052 10.06 175.232 10.18 175.388 10.336C175.544 10.492 175.664 10.672 175.748 10.876C175.844 11.08 175.892 11.296 175.892 11.524C175.892 11.752 175.844 11.968 175.748 12.172C175.664 12.376 175.544 12.556 175.388 12.712C175.232 12.868 175.052 12.988 174.848 13.072C174.644 13.168 174.428 13.216 174.2 13.216ZM183.606 13.216C182.682 13.216 181.824 13.066 181.032 12.766C180.24 12.466 179.55 12.046 178.962 11.506C178.386 10.954 177.93 10.3 177.594 9.544C177.27 8.776 177.108 7.93 177.108 7.006C177.108 6.082 177.27 5.242 177.594 4.486C177.93 3.718 178.386 3.064 178.962 2.524C179.55 1.972 180.24 1.546 181.032 1.246C181.824 0.945999 182.682 0.795999 183.606 0.795999C184.326 0.795999 184.968 0.891999 185.532 1.084C186.096 1.264 186.588 1.51 187.008 1.822C187.44 2.122 187.8 2.464 188.088 2.848C188.388 3.232 188.64 3.622 188.844 4.018L186.18 5.278C186.084 5.038 185.946 4.816 185.766 4.612C185.598 4.396 185.4 4.21 185.172 4.054C184.944 3.886 184.698 3.76 184.434 3.676C184.17 3.58 183.894 3.532 183.606 3.532C183.114 3.532 182.664 3.622 182.256 3.802C181.848 3.982 181.494 4.228 181.194 4.54C180.894 4.852 180.66 5.218 180.492 5.638C180.336 6.058 180.258 6.514 180.258 7.006C180.258 7.498 180.336 7.954 180.492 8.374C180.66 8.794 180.894 9.16 181.194 9.472C181.494 9.784 181.848 10.03 182.256 10.21C182.664 10.39 183.114 10.48 183.606 10.48C183.894 10.48 184.17 10.438 184.434 10.354C184.698 10.258 184.944 10.132 185.172 9.976C185.4 9.808 185.598 9.622 185.766 9.418C185.946 9.202 186.084 8.974 186.18 8.734L188.844 9.994C188.652 10.378 188.406 10.762 188.106 11.146C187.806 11.53 187.44 11.878 187.008 12.19C186.588 12.49 186.096 12.736 185.532 12.928C184.968 13.12 184.326 13.216 183.606 13.216ZM195.997 13.216C195.073 13.216 194.221 13.066 193.441 12.766C192.661 12.454 191.983 12.028 191.407 11.488C190.831 10.936 190.381 10.282 190.057 9.526C189.733 8.758 189.571 7.918 189.571 7.006C189.571 6.094 189.733 5.26 190.057 4.504C190.381 3.736 190.831 3.082 191.407 2.542C191.983 1.99 192.661 1.564 193.441 1.264C194.221 0.952 195.073 0.795999 195.997 0.795999C196.909 0.795999 197.755 0.952 198.535 1.264C199.327 1.564 200.005 1.99 200.569 2.542C201.145 3.082 201.595 3.736 201.919 4.504C202.243 5.26 202.405 6.094 202.405 7.006C202.405 7.918 202.243 8.758 201.919 9.526C201.595 10.282 201.145 10.936 200.569 11.488C200.005 12.028 199.327 12.454 198.535 12.766C197.755 13.066 196.909 13.216 195.997 13.216ZM195.997 10.48C196.489 10.48 196.933 10.39 197.329 10.21C197.737 10.03 198.079 9.784 198.355 9.472C198.643 9.16 198.865 8.794 199.021 8.374C199.177 7.954 199.255 7.498 199.255 7.006C199.255 6.514 199.177 6.058 199.021 5.638C198.865 5.218 198.643 4.852 198.355 4.54C198.079 4.228 197.737 3.982 197.329 3.802C196.933 3.622 196.489 3.532 195.997 3.532C195.493 3.532 195.037 3.622 194.629 3.802C194.233 3.982 193.891 4.228 193.603 4.54C193.327 4.852 193.111 5.218 192.955 5.638C192.799 6.058 192.721 6.514 192.721 7.006C192.721 7.498 192.799 7.954 192.955 8.374C193.111 8.794 193.327 9.16 193.603 9.472C193.891 9.784 194.233 10.03 194.629 10.21C195.037 10.39 195.493 10.48 195.997 10.48ZM214.494 13V5.188L211.452 13H210.084L207.06 5.188V13H203.964V0.993999H208.266L210.768 7.51L213.288 0.993999H217.59V13H214.494Z" fill="#B09154"/>
</svg>
